<?xml version="1.0" encoding="UTF-8"?>
<!DOCTYPE svg PUBLIC "-//W3C//DTD SVG 1.1//EN" "http://www.w3.org/Graphics/SVG/1.1/DTD/svg11.dtd">
<!-- Creator: CorelDRAW 2021 (64-Bit) -->
<svg xmlns="http://www.w3.org/2000/svg" xml:space="preserve" width="451px" height="512px"
  version="1.1" shape-rendering="geometricPrecision" text-rendering="geometricPrecision"
  image-rendering="optimizeQuality" fill-rule="evenodd" clip-rule="evenodd"
  viewBox="0 0 451 512.57"
  xmlns:xlink="http://www.w3.org/1999/xlink"
  xmlns:xodm="http://www.corel.com/coreldraw/odm/2003">
 <g id="Layer_x0020_1">
  <metadata id="CorelCorpID_0Corel-Layer"/>
  <path fill="white" d="M83.65 80.94c-0.53,-1.28 -0.82,-2.69 -0.82,-4.16 0,-2.43 0.79,-4.68 2.14,-6.49l-11.84 6.33c-3.22,1.72 -7.24,0.5 -8.96,-2.73 -1.72,-3.23 -0.49,-7.24 2.73,-8.96l20.16 -10.78 0 -9.94 -13.93 7.44c-3.22,1.72 -7.24,0.5 -8.96,-2.73 -1.72,-3.22 -0.49,-7.24 2.73,-8.96l18.77 -10.04c-1.19,-3.42 -3.12,-6.49 -5.58,-9.04l-0.32 -0.29c-4.49,-4.5 -10.69,-7.29 -17.5,-7.29l-24.18 0c-6.83,0 -13.03,2.79 -17.5,7.26l-0.03 0.03c-2.6,2.6 -4.63,5.78 -5.87,9.33l18.77 10.04c3.22,1.72 4.45,5.74 2.73,8.96 -1.72,3.23 -5.74,4.45 -8.96,2.73l-13.93 -7.44 0 9.94 20.16 10.78c3.22,1.72 4.45,5.73 2.73,8.96 -1.72,3.23 -5.74,4.45 -8.96,2.73l-13.93 -7.44 0 9.94 20.16 10.78c3.22,1.72 4.45,5.73 2.73,8.96 -1.72,3.23 -5.74,4.45 -8.96,2.73l-13.93 -7.45 0 9.66 20.16 10.77c3.22,1.72 4.45,5.74 2.73,8.97 -1.72,3.23 -5.74,4.45 -8.96,2.73l-13.68 -7.31c0.78,5.42 3.32,10.3 7.04,14.01 4.47,4.5 10.67,7.28 17.5,7.28l24.18 0c6.81,0 13.01,-2.79 17.5,-7.28 3.72,-3.71 6.26,-8.59 7.04,-14.01l-13.68 7.31c-3.22,1.72 -7.24,0.5 -8.96,-2.73 -1.72,-3.23 -0.49,-7.25 2.73,-8.97l20.16 -10.77 0 -9.66 -13.93 7.45c-3.22,1.72 -7.24,0.5 -8.96,-2.73 -1.72,-3.23 -0.49,-7.24 2.73,-8.96l16.75 -8.96zm152.73 55.19l0 250.16 26.81 0c5.67,0 10.81,2.32 14.53,6.03 3.71,3.71 6.02,8.86 6.02,14.52l0 18.07 66.9 0 0 -27.81c0,-1.21 0.06,-2.41 0.17,-3.6 -0.31,-1.46 -0.12,-3.04 0.64,-4.47l0.1 -0.18c1.6,-7.18 5.24,-13.62 10.28,-18.66 6.9,-6.9 16.42,-11.18 26.9,-11.18l24.18 0c10.45,0 19.98,4.29 26.89,11.2 5.05,5.02 8.69,11.46 10.29,18.64l0.1 0.18c0.77,1.43 0.95,3.01 0.64,4.47 0.11,1.19 0.17,2.39 0.17,3.6l0 77.38c0,10.44 -4.28,19.97 -11.18,26.88l-0.03 0.02c-6.92,6.91 -16.44,11.19 -26.88,11.19l-24.18 0c-10.48,0 -20,-4.29 -26.9,-11.19l-0.38 -0.4c-6.68,-6.88 -10.81,-16.25 -10.81,-26.5l0 -27.81 -66.9 0 0 18.06c0,5.67 -2.31,10.82 -6.02,14.53 -3.72,3.71 -8.86,6.02 -14.53,6.02l-75.38 0c-5.66,0 -10.81,-2.31 -14.52,-6.02 -3.72,-3.71 -6.03,-8.86 -6.03,-14.53l0 -18.06 -66.9 0 0 27.81c0,10.45 -4.29,19.98 -11.2,26.89 -6.89,6.91 -16.41,11.2 -26.89,11.2l-24.18 0c-10.45,0 -19.97,-4.29 -26.88,-11.19l-0.03 -0.02c-6.9,-6.93 -11.18,-16.44 -11.18,-26.88l0 -77.38c0,-1.21 0.06,-2.41 0.17,-3.6 -0.31,-1.46 -0.12,-3.04 0.64,-4.47l0.1 -0.18c1.6,-7.18 5.24,-13.62 10.27,-18.66l0.41 -0.37c6.88,-6.68 16.24,-10.81 26.5,-10.81l24.18 0c10.48,0 20,4.28 26.91,11.18 5.03,5.04 8.68,11.48 10.27,18.66l0.1 0.18c0.76,1.43 0.95,3.01 0.64,4.47 0.11,1.19 0.17,2.39 0.17,3.6l0 27.81 66.9 0 0 -18.07c0,-5.66 2.31,-10.81 6.03,-14.52 3.71,-3.71 8.86,-6.03 14.52,-6.03l26.81 0 0 -250.16 -26.81 0c-5.66,0 -10.81,-2.31 -14.52,-6.02 -3.72,-3.71 -6.03,-8.86 -6.03,-14.53l0 -27.92 -66.9 0 0 27.81c0,10.48 -4.28,20 -11.18,26.9 -6.91,6.9 -16.43,11.19 -26.91,11.19l-24.18 0c-10.45,0 -19.98,-4.29 -26.89,-11.2 -6.91,-6.89 -11.2,-16.41 -11.2,-26.89l0 -77.38c0,-1.21 0.06,-2.41 0.17,-3.59 -0.31,-1.47 -0.12,-3.05 0.64,-4.48l0.1 -0.19c1.61,-7.15 5.25,-13.58 10.27,-18.62l0.03 -0.03c6.92,-6.9 16.44,-11.18 26.88,-11.18l24.18 0c10.48,0 20,4.29 26.91,11.18l0.37 0.41c4.83,4.98 8.33,11.26 9.9,18.24l0.1 0.19c0.76,1.43 0.95,3.01 0.64,4.48 0.11,1.18 0.17,2.38 0.17,3.59l0 27.81 66.9 0 0 -8.21c0,-5.66 2.31,-10.81 6.03,-14.52 3.71,-3.72 8.86,-6.03 14.52,-6.03l75.38 0c5.67,0 10.81,2.31 14.53,6.03 3.71,3.71 6.02,8.86 6.02,14.52l0 8.21 66.9 0 0 -27.81c0,-1.21 0.06,-2.41 0.17,-3.59 -0.31,-1.47 -0.12,-3.05 0.64,-4.48l0.1 -0.19c1.61,-7.16 5.25,-13.59 10.29,-18.63 6.89,-6.91 16.41,-11.2 26.89,-11.2l24.18 0c10.45,0 19.97,4.29 26.88,11.18l0.03 0.03c5.03,5.05 8.67,11.47 10.27,18.62l0.1 0.19c0.77,1.43 0.95,3.01 0.64,4.48 0.11,1.18 0.17,2.38 0.17,3.59l0 77.38c0,10.48 -4.28,20 -11.18,26.9l-0.41 0.38c-6.87,6.67 -16.24,10.81 -26.5,10.81l-24.18 0c-10.48,0 -20,-4.29 -26.9,-11.19 -6.9,-6.9 -11.19,-16.42 -11.19,-26.9l0 -27.81 -66.9 0 0 27.92c0,5.67 -2.31,10.82 -6.02,14.53 -3.72,3.71 -8.86,6.02 -14.53,6.02l-26.81 0zm201.07 341.83l-13.68 7.32c-3.22,1.72 -7.24,0.49 -8.96,-2.73 -1.72,-3.23 -0.49,-7.25 2.73,-8.97l20.16 -10.77 0 -9.66 -13.93 7.45c-3.22,1.72 -7.24,0.5 -8.96,-2.73 -1.72,-3.23 -0.49,-7.24 2.73,-8.96l20.16 -10.78 0 -9.94 -13.93 7.44c-3.22,1.72 -7.24,0.5 -8.96,-2.73 -1.72,-3.23 -0.49,-7.24 2.73,-8.96l20.16 -10.78 0 -9.94 -13.93 7.44c-3.22,1.72 -7.24,0.5 -8.96,-2.73 -1.72,-3.22 -0.49,-7.24 2.73,-8.96l18.76 -10.03c-1.24,-3.55 -3.28,-6.74 -5.89,-9.34 -4.47,-4.5 -10.67,-7.29 -17.5,-7.29l-24.18 0c-6.81,0 -13.01,2.79 -17.5,7.29 -2.61,2.6 -4.65,5.79 -5.89,9.34l18.76 10.03c3.22,1.72 4.45,5.74 2.73,8.96 -1.72,3.23 -5.74,4.45 -8.96,2.73l-13.93 -7.44 0 9.94 20.16 10.78c3.22,1.72 4.45,5.73 2.73,8.96 -1.72,3.23 -5.74,4.45 -8.96,2.73l-11.84 -6.33c1.35,1.81 2.14,4.06 2.14,6.49 0,1.47 -0.29,2.88 -0.82,4.16l16.75 8.96c3.22,1.72 4.45,5.73 2.73,8.96 -1.72,3.23 -5.74,4.45 -8.96,2.73l-13.93 -7.45 0 9.66 20.16 10.77c3.22,1.72 4.45,5.74 2.73,8.97 -1.72,3.22 -5.74,4.45 -8.96,2.73l-13.68 -7.32c0.75,5.3 3.18,10.06 6.72,13.72l0.32 0.3c4.49,4.49 10.69,7.28 17.5,7.28l24.18 0c6.83,0 13.03,-2.78 17.5,-7.25l0.03 -0.03c3.7,-3.7 6.24,-8.58 7.01,-14.02zm-350.64 0l-13.68 7.32c-3.22,1.72 -7.24,0.49 -8.96,-2.73 -1.72,-3.23 -0.49,-7.25 2.73,-8.97l20.16 -10.77 0 -9.66 -13.93 7.45c-3.22,1.72 -7.24,0.5 -8.96,-2.73 -1.72,-3.23 -0.49,-7.24 2.73,-8.96l16.75 -8.96c-0.53,-1.28 -0.82,-2.69 -0.82,-4.16 0,-2.43 0.79,-4.68 2.14,-6.49l-11.84 6.33c-3.22,1.72 -7.24,0.5 -8.96,-2.73 -1.72,-3.23 -0.49,-7.24 2.73,-8.96l20.16 -10.78 0 -9.94 -13.93 7.44c-3.22,1.72 -7.24,0.5 -8.96,-2.73 -1.72,-3.22 -0.49,-7.24 2.73,-8.96l18.76 -10.03c-1.24,-3.55 -3.28,-6.74 -5.89,-9.34 -4.49,-4.5 -10.69,-7.29 -17.5,-7.29l-24.18 0c-6.68,0 -12.76,2.67 -17.21,6.97l-0.29 0.32c-2.61,2.6 -4.65,5.79 -5.89,9.34l18.76 10.03c3.22,1.72 4.45,5.74 2.73,8.96 -1.72,3.23 -5.74,4.45 -8.96,2.73l-13.93 -7.44 0 9.94 20.16 10.78c3.22,1.72 4.45,5.73 2.73,8.96 -1.72,3.23 -5.74,4.45 -8.96,2.73l-13.93 -7.44 0 9.94 20.16 10.78c3.22,1.72 4.45,5.73 2.73,8.96 -1.72,3.23 -5.74,4.45 -8.96,2.73l-13.93 -7.45 0 9.66 20.16 10.77c3.22,1.72 4.45,5.74 2.73,8.97 -1.72,3.22 -5.74,4.45 -8.96,2.73l-13.68 -7.32c0.77,5.44 3.31,10.32 7.01,14.02l0.03 0.03c4.47,4.47 10.67,7.25 17.5,7.25l24.18 0c6.81,0 13.01,-2.79 17.5,-7.28 3.72,-3.7 6.27,-8.58 7.04,-14.02zm350.64 -359l-13.68 7.31c-3.22,1.72 -7.24,0.5 -8.96,-2.73 -1.72,-3.23 -0.49,-7.25 2.73,-8.97l20.16 -10.77 0 -9.66 -13.93 7.45c-3.22,1.72 -7.24,0.5 -8.96,-2.73 -1.72,-3.23 -0.49,-7.24 2.73,-8.96l20.16 -10.78 0 -9.94 -13.93 7.44c-3.22,1.72 -7.24,0.5 -8.96,-2.73 -1.72,-3.23 -0.49,-7.24 2.73,-8.96l20.16 -10.78 0 -9.94 -13.93 7.44c-3.22,1.72 -7.24,0.5 -8.96,-2.73 -1.72,-3.22 -0.49,-7.24 2.73,-8.96l18.77 -10.04c-1.24,-3.55 -3.27,-6.73 -5.87,-9.33l-0.03 -0.03c-4.47,-4.47 -10.67,-7.26 -17.5,-7.26l-24.18 0c-6.81,0 -13.01,2.79 -17.5,7.29 -2.62,2.6 -4.65,5.78 -5.9,9.33l18.77 10.04c3.22,1.72 4.45,5.74 2.73,8.96 -1.72,3.23 -5.74,4.45 -8.96,2.73l-13.93 -7.44 0 9.94 20.16 10.78c3.22,1.72 4.45,5.73 2.73,8.96 -1.72,3.23 -5.74,4.45 -8.96,2.73l-11.84 -6.33c1.35,1.81 2.14,4.06 2.14,6.49 0,1.47 -0.29,2.88 -0.82,4.16l16.75 8.96c3.22,1.72 4.45,5.73 2.73,8.96 -1.72,3.23 -5.74,4.45 -8.96,2.73l-13.93 -7.45 0 9.66 20.16 10.77c3.22,1.72 4.45,5.74 2.73,8.97 -1.72,3.23 -5.74,4.45 -8.96,2.73l-13.68 -7.31c0.78,5.42 3.32,10.3 7.04,14.01 4.49,4.49 10.69,7.28 17.5,7.28l24.18 0c6.68,0 12.76,-2.66 17.21,-6.96l0.29 -0.32c3.72,-3.71 6.26,-8.59 7.04,-14.01zm-249.64 -67.31l75.38 0c3.32,0 6.04,2.72 6.04,6.04l0 8.21 0 21.76 0 27.92c0,3.33 -2.72,6.04 -6.04,6.04l-75.38 0c-3.32,0 -6.04,-2.71 -6.04,-6.04l0 -27.92 0 -21.76 0 -8.21c0,-3.32 2.72,-6.04 6.04,-6.04zm0 349.15l75.38 0c3.32,0 6.04,2.72 6.04,6.04l0 18.07 0 21.76 0 18.06c0,3.33 -2.72,6.04 -6.04,6.04l-75.38 0c-3.32,0 -6.04,-2.71 -6.04,-6.04l0 -18.06 0 -21.76 0 -18.07c0,-3.32 2.72,-6.04 6.04,-6.04z"/>
 </g>
</svg>